<svg width="32" height="28" viewBox="0 0 32 28" fill="none" xmlns="http://www.w3.org/2000/svg">
<path d="M20.65 18.6458H22.975C23.3625 18.6458 23.75 18.1813 23.75 17.7167V7.96042C23.75 7.49583 23.3625 7.03125 22.975 7.03125H20.65C20.2625 7.03125 19.875 7.49583 19.875 7.96042V17.7167C19.875 18.1813 20.2625 18.6458 20.65 18.6458V18.6458ZM26.4625 18.6458H28.7875C29.175 18.6458 29.5625 18.1813 29.5625 17.7167V0.991667C29.5625 0.527084 29.175 0.0625 28.7875 0.0625H26.4625C26.075 0.0625 25.6875 0.527084 25.6875 0.991667V17.7167C25.6875 18.1813 26.075 18.6458 26.4625 18.6458ZM9.025 18.6458H11.35C11.7375 18.6458 12.125 18.1813 12.125 17.7167V12.6063C12.125 12.1417 11.7375 11.6771 11.35 11.6771H9.025C8.6375 11.6771 8.25 12.1417 8.25 12.6063V17.7167C8.25 18.1813 8.6375 18.6458 9.025 18.6458ZM14.8375 18.6458H17.1625C17.55 18.6458 17.9375 18.1813 17.9375 17.7167V3.31458C17.9375 2.85 17.55 2.38542 17.1625 2.38542H14.8375C14.45 2.38542 14.0625 2.85 14.0625 3.31458V17.7167C14.0625 18.1813 14.45 18.6458 14.8375 18.6458V18.6458ZM30.5312 23.2917H4.375V1.22396C4.375 0.582253 3.94148 0.0625 3.40625 0.0625H1.46875C0.933516 0.0625 0.5 0.582253 0.5 1.22396V25.6146C0.5 26.8973 1.36764 27.9375 2.4375 27.9375H30.5312C31.0665 27.9375 31.5 27.4177 31.5 26.776V24.4531C31.5 23.8114 31.0665 23.2917 30.5312 23.2917Z" fill="white"/>
</svg>
