<svg width="32" height="26" viewBox="0 0 32 26" fill="none" xmlns="http://www.w3.org/2000/svg">
<path d="M31.5 7.8855V6.67636L29.5001 6.1768L29.3457 5.58642L30.7562 4.41133L30.0264 3.31005L27.9913 3.7358L27.4861 3.31005L28.0124 1.7092L26.6721 1.0507L25.1774 2.24282L24.4266 2.06116L23.9354 0.5625H22.3494L21.9144 2.06116L21.0653 2.24282L19.6829 1.0507L18.3215 1.67514L18.8899 3.2476L18.3215 3.72445L16.3216 3.29869L15.5497 4.38295L17.0023 5.57507L16.7988 6.16545L14.7988 6.60823L14.7778 7.84009L16.7988 8.26584L16.9672 8.95273L15.5567 10.0824L16.2865 11.1326L18.3636 10.7068L18.8689 11.195L18.3005 12.7221L19.6969 13.3806L21.0583 12.2225L21.8723 12.3872L22.3424 14.005L23.9283 14.0221L24.3985 12.3872L25.2125 12.1885L26.6651 13.4147L28.0966 12.7278L27.4791 11.1383L28.0264 10.6785L30.0474 11.178L30.7702 10.037L29.3036 8.96976L29.458 8.28288L31.5 7.8855V7.8855ZM23.1354 10.4514C20.939 10.4514 19.1496 9.0095 19.1496 7.227C19.1496 5.4445 20.9319 4.00261 23.1354 4.00261C25.3388 4.00261 27.1212 5.4445 27.1212 7.227C27.1212 9.01517 25.3388 10.4514 23.1354 10.4514ZM28.2089 11.3824L31.5 12.2055V14.4705L27.6335 15.2312L27.3458 16.5198L30.0755 18.5237L28.7282 20.6752L24.9388 19.7272L23.9143 20.5901L25.0862 23.5704L22.3986 24.859L19.6688 22.5599L18.1461 22.9346L17.2619 26L14.2866 25.9716L13.4024 22.9289L11.8796 22.611L9.32533 24.7909L6.70086 23.559L7.76749 20.6922L6.80612 19.7783L2.91152 20.5787L1.52912 18.6032L4.18867 16.4801L3.85184 15.1858L0.0625 14.3854L0.0975865 12.0636L3.85184 11.2291L4.25183 10.1108L1.5221 7.87415L2.97468 5.84187L6.73595 6.6423L7.80258 5.75105L6.73595 2.79914L9.29025 1.62405L11.8726 3.86069L13.4655 3.51441L14.2795 0.5625H17.2549L18.0689 3.16813L16.483 2.8332L16.0409 2.73669L15.8093 3.06027L15.0374 4.14453L14.8058 4.46242L15.1286 4.72356L16.3356 5.71131L16.3146 5.76808L14.6444 6.13706L14.2094 6.23357L14.2024 6.59688L14.1883 7.32918C10.8551 7.91956 8.34291 10.3265 8.34291 13.2046C8.34291 16.5142 11.6621 19.2049 15.7602 19.2049C19.3039 19.2049 22.2652 17.1954 23.002 14.5046L23.9283 14.5159L24.4125 14.5216L24.5248 14.1413L24.9178 12.7789L25.0511 12.7448L26.2511 13.7553L26.5809 14.0334L26.9879 13.8404L28.4194 13.1535L28.8264 12.9548L28.6861 12.5858L28.2089 11.3824V11.3824Z" fill="white"/>
</svg>
