<svg width="32" height="27" viewBox="0 0 32 27" fill="none" xmlns="http://www.w3.org/2000/svg">
<path d="M15.3324 7.01961L5.25041 15.9079V25.501C5.25041 25.7493 5.3426 25.9876 5.50668 26.1632C5.67076 26.3388 5.8933 26.4375 6.12535 26.4375L12.2532 26.4205C12.4844 26.4193 12.7059 26.3201 12.869 26.1446C13.0321 25.9691 13.1237 25.7316 13.1237 25.484V19.8818C13.1237 19.6334 13.2159 19.3952 13.38 19.2195C13.5441 19.0439 13.7666 18.9452 13.9986 18.9452H17.4984C17.7304 18.9452 17.953 19.0439 18.117 19.2195C18.2811 19.3952 18.3733 19.6334 18.3733 19.8818V25.4799C18.373 25.6031 18.3953 25.7252 18.4391 25.8392C18.4829 25.9532 18.5473 26.0567 18.6286 26.144C18.7099 26.2313 18.8065 26.3005 18.9128 26.3478C19.0191 26.395 19.1331 26.4194 19.2482 26.4194L25.3739 26.4375C25.6059 26.4375 25.8285 26.3388 25.9925 26.1632C26.1566 25.9876 26.2488 25.7493 26.2488 25.501V15.9015L16.169 7.01961C16.0505 6.91737 15.9029 6.86161 15.7507 6.86161C15.5985 6.86161 15.4509 6.91737 15.3324 7.01961V7.01961ZM31.2578 13.0608L26.6863 9.02731V0.919839C26.6863 0.733551 26.6171 0.554892 26.4941 0.423167C26.371 0.291441 26.2041 0.217438 26.0301 0.217438H22.9678C22.7938 0.217438 22.6269 0.291441 22.5038 0.423167C22.3807 0.554892 22.3116 0.733551 22.3116 0.919839V5.16995L17.4158 0.858379C16.946 0.444535 16.3564 0.218265 15.748 0.218265C15.1395 0.218265 14.55 0.444535 14.0801 0.858379L0.238145 13.0608C0.171698 13.1196 0.116724 13.1919 0.076363 13.2734C0.0360023 13.3549 0.0110464 13.4442 0.00292127 13.5361C-0.00520391 13.6279 0.00366086 13.7206 0.0290091 13.8088C0.0543573 13.897 0.0956921 13.979 0.150652 14.0501L1.54508 15.8646C1.59989 15.9359 1.6673 15.995 1.74347 16.0384C1.81963 16.0818 1.90304 16.1087 1.98894 16.1176C2.07483 16.1265 2.16151 16.1171 2.24402 16.0901C2.32652 16.063 2.40324 16.0188 2.46977 15.96L15.3324 4.61974C15.4509 4.5175 15.5985 4.46174 15.7507 4.46174C15.9029 4.46174 16.0505 4.5175 16.169 4.61974L29.0322 15.96C29.0986 16.0188 29.1752 16.0631 29.2576 16.0902C29.34 16.1174 29.4266 16.1268 29.5124 16.1181C29.5982 16.1094 29.6816 16.0827 29.7578 16.0395C29.8339 15.9963 29.9014 15.9375 29.9563 15.8664L31.3507 14.0518C31.4056 13.9803 31.4468 13.8979 31.4719 13.8093C31.4969 13.7207 31.5054 13.6277 31.4967 13.5356C31.4881 13.4436 31.4625 13.3542 31.4215 13.2727C31.3805 13.1912 31.3249 13.1192 31.2578 13.0608V13.0608Z" fill="white"/>
</svg>
