<svg width="84" height="70" viewBox="0 0 84 70" fill="none" xmlns="http://www.w3.org/2000/svg">
<rect x="12.1632" y="1.46957" width="30.8505" height="30.7114" stroke="#3E7D84" stroke-width="0.5"/>
<rect x="0.270942" y="0.227347" width="30.8494" height="30.7125" transform="matrix(0.996228 -0.0867722 0.0875409 0.996161 8.7592 3.96423)" stroke="#3E7D84" stroke-width="0.5"/>
<rect x="0.289834" y="0.202943" width="30.8463" height="30.7157" transform="matrix(0.984939 -0.172901 0.174398 0.984675 6.89024 6.71671)" stroke="#3E7D84" stroke-width="0.5"/>
<rect x="0.320886" y="0.149631" width="30.8342" height="30.7277" transform="matrix(0.940179 -0.34068 0.343364 0.939202 2.47319 13.0605)" stroke="#3E7D84" stroke-width="0.5"/>
<rect x="0.306527" y="0.176972" width="30.8412" height="30.7208" transform="matrix(0.966212 -0.257748 0.259894 0.965637 4.3534 10.007)" stroke="#3E7D84" stroke-width="0.5"/>
<rect x="0.342163" y="0.0916815" width="30.8158" height="30.7463" transform="matrix(0.866985 -0.498335 0.501667 0.865061 -0.000480733 20.7536)" stroke="#3E7D84" stroke-width="0.5"/>
<rect x="0.332797" y="0.121127" width="30.8257" height="30.7363" transform="matrix(0.907025 -0.421077 0.424162 0.905586 1.23359 17.0586)" stroke="#3E7D84" stroke-width="0.5"/>
<rect x="0.30706" y="-0.176053" width="30.721" height="30.841" transform="matrix(0.262804 -0.964849 0.965437 0.260637 4.76828 53.6546)" stroke="#3E7D84" stroke-width="0.5"/>
<rect x="0.290446" y="-0.202075" width="30.7158" height="30.8461" transform="matrix(0.177367 -0.984145 0.984418 0.175846 6.62646 57.3321)" stroke="#3E7D84" stroke-width="0.5"/>
<rect x="0.271627" y="-0.226535" width="30.7126" height="30.8493" transform="matrix(0.0905452 -0.995892 0.995964 0.0897505 8.81567 59.7741)" stroke="#3E7D84" stroke-width="0.5"/>
<rect x="0.227987" y="-0.270053" width="30.7124" height="30.8495" transform="matrix(-0.0845358 -0.99642 0.996483 -0.0837931 13.7904 65.5306)" stroke="#3E7D84" stroke-width="0.5"/>
<rect x="0.250753" y="-0.249251" width="30.7115" height="30.8505" transform="matrix(0.00301645 -0.999995 0.999996 0.00298976 11.3385 62.998)" stroke="#3E7D84" stroke-width="0.5"/>
<rect x="0.177499" y="-0.305318" width="30.7206" height="30.8414" transform="matrix(-0.256982 -0.966416 0.966979 -0.254856 20.5321 69.7884)" stroke="#3E7D84" stroke-width="0.5"/>
<rect x="0.203506" y="-0.288788" width="30.7155" height="30.8464" transform="matrix(-0.171428 -0.985197 0.985452 -0.169955 17.3133 67.6988)" stroke="#3E7D84" stroke-width="0.5"/>
<rect x="-0.190277" y="-0.297593" width="30.844" height="30.7179" transform="matrix(-0.976851 -0.21392 0.215741 -0.976451 65.419 68.1996)" stroke="#3E7D84" stroke-width="0.5"/>
<rect x="-0.215569" y="-0.279978" width="30.8481" height="30.7138" transform="matrix(-0.991732 -0.128329 0.129455 -0.991585 68.9866 66.257)" stroke="#3E7D84" stroke-width="0.5"/>
<rect x="-0.239242" y="-0.260224" width="30.8502" height="30.7117" transform="matrix(-0.999127 -0.0417856 0.042158 -0.999111 71.3137 64.0491)" stroke="#3E7D84" stroke-width="0.5"/>
<rect x="-0.281011" y="-0.214891" width="30.848" height="30.7139" transform="matrix(-0.991305 0.131586 -0.13274 -0.991151 76.8605 59.0009)" stroke="#3E7D84" stroke-width="0.5"/>
<rect x="-0.261113" y="-0.238475" width="30.8502" height="30.7117" transform="matrix(-0.998984 0.045067 -0.0454684 -0.998966 74.4243 61.4736)" stroke="#3E7D84" stroke-width="0.5"/>
<rect x="-0.314277" y="-0.162943" width="30.8378" height="30.7242" transform="matrix(-0.953605 0.30106 -0.303501 -0.952831 80.8782 52.2536)" stroke="#3E7D84" stroke-width="0.5"/>
<rect x="-0.298779" y="-0.18965" width="30.8439" height="30.7181" transform="matrix(-0.976143 0.217129 -0.218974 -0.975731 78.8944 55.4773)" stroke="#3E7D84" stroke-width="0.5"/>
<rect x="-0.337948" y="0.106051" width="30.7413" height="30.8207" transform="matrix(-0.464566 0.885538 -0.887227 -0.461334 83.5991 19.9256)" stroke="#3E7D84" stroke-width="0.5"/>
<rect x="-0.327338" y="0.135068" width="30.732" height="30.83" transform="matrix(-0.38539 0.922754 -0.923963 -0.382481 82.7007 15.9343)" stroke="#3E7D84" stroke-width="0.5"/>
<rect x="-0.314228" y="0.163036" width="30.7242" height="30.8378" transform="matrix(-0.303218 0.952921 -0.953694 -0.300779 81.2101 13.0575)" stroke="#3E7D84" stroke-width="0.5"/>
<rect x="-0.280947" y="0.214974" width="30.7139" height="30.848" transform="matrix(-0.132445 0.99119 -0.991343 -0.131294 77.8134 6.26419)" stroke="#3E7D84" stroke-width="0.5"/>
<rect x="-0.298723" y="0.189739" width="30.7181" height="30.8439" transform="matrix(-0.218684 0.975796 -0.976207 -0.216841 79.5565 9.32535)" stroke="#3E7D84" stroke-width="0.5"/>
<rect x="-0.239165" y="0.260295" width="30.7117" height="30.8502" transform="matrix(0.042455 0.999098 -0.999114 0.04208 72.3173 0.488291)" stroke="#3E7D84" stroke-width="0.5"/>
<rect x="-0.261042" y="0.238552" width="30.7117" height="30.8502" transform="matrix(-0.0451715 0.998979 -0.998997 -0.0447726 74.9331 3.31271)" stroke="#3E7D84" stroke-width="0.5"/>
</svg>
